<?xml version="1.0" encoding="UTF-8" standalone="no"?>
<!DOCTYPE svg PUBLIC "-//W3C//DTD SVG 1.0//EN" "http://www.w3.org/TR/2001/PR-SVG-20010719/DTD/svg10.dtd">
<svg width="61cm" height="23cm" viewBox="319 -201 1201 441" xmlns="http://www.w3.org/2000/svg" xmlns:xlink="http://www.w3.org/1999/xlink">
  <g>
    <line style="fill: none; fill-opacity:0; stroke-width: 2; stroke: #cc2f2f" x1="820" y1="160" x2="929.02" y2="160"/>
    <polygon style="fill: #cc2f2f" points="936.52,160 926.52,163 929.02,160 926.52,157 "/>
    <polygon style="fill: none; fill-opacity:0; stroke-width: 2; stroke: #cc2f2f" points="936.52,160 926.52,163 929.02,160 926.52,157 "/>
  </g>
  <g>
    <g>
      <rect style="fill: #f0a74a" x="940" y="-80" width="40" height="40"/>
      <rect style="fill: none; fill-opacity:0; stroke-width: 2; stroke: #000000" x="940" y="-80" width="40" height="40"/>
    </g>
    <g>
      <rect style="fill: #f0a74a" x="960" y="-71.9" width="0" height="14.95"/>
      <text font-size="12.8" style="fill: #000000;text-anchor:start;font-family:sans-serif;font-style:normal;font-weight:normal" x="960" y="-60">
        <tspan x="960" y="-60" xml:space="preserve"></tspan>
      </text>
    </g>
    <g>
      <rect style="fill: #f0a74a" x="953.2" y="-73.175" width="13.6" height="26.35"/>
      <text font-size="22.5778" style="fill: #000000;text-anchor:middle;font-family:monospace;font-style:normal;font-weight:normal" x="960" y="-52.175">
        <tspan x="960" y="-52.175" xml:space="preserve">1</tspan>
      </text>
    </g>
    <g>
      <rect style="fill: #f0a74a" x="980" y="-80" width="40" height="40"/>
      <rect style="fill: none; fill-opacity:0; stroke-width: 2; stroke: #000000" x="980" y="-80" width="40" height="40"/>
    </g>
    <g>
      <rect style="fill: #f0a74a" x="1000" y="-71.9" width="0" height="14.95"/>
      <text font-size="12.8" style="fill: #000000;text-anchor:start;font-family:sans-serif;font-style:normal;font-weight:normal" x="1000" y="-60">
        <tspan x="1000" y="-60" xml:space="preserve"></tspan>
      </text>
    </g>
    <g>
      <rect style="fill: #f0a74a" x="986.4" y="-73.175" width="27.2" height="26.35"/>
      <text font-size="22.5778" style="fill: #000000;text-anchor:middle;font-family:monospace;font-style:normal;font-weight:normal" x="1000" y="-52.175">
        <tspan x="1000" y="-52.175" xml:space="preserve">42</tspan>
      </text>
    </g>
    <g>
      <rect style="fill: #f0a74a" x="1020" y="-80" width="40" height="40"/>
      <rect style="fill: none; fill-opacity:0; stroke-width: 2; stroke: #000000" x="1020" y="-80" width="40" height="40"/>
    </g>
    <g>
      <rect style="fill: #f0a74a" x="1040" y="-71.9" width="0" height="14.95"/>
      <text font-size="12.8" style="fill: #000000;text-anchor:start;font-family:sans-serif;font-style:normal;font-weight:normal" x="1040" y="-60">
        <tspan x="1040" y="-60" xml:space="preserve"></tspan>
      </text>
    </g>
    <g>
      <rect style="fill: #f0a74a" x="1026.4" y="-73.175" width="27.2" height="26.35"/>
      <text font-size="22.5778" style="fill: #000000;text-anchor:middle;font-family:monospace;font-style:normal;font-weight:normal" x="1040" y="-52.175">
        <tspan x="1040" y="-52.175" xml:space="preserve">23</tspan>
      </text>
    </g>
    <g>
      <rect style="fill: #f0a74a" x="1060" y="-80" width="40" height="40"/>
      <rect style="fill: none; fill-opacity:0; stroke-width: 2; stroke: #000000" x="1060" y="-80" width="40" height="40"/>
    </g>
    <g>
      <rect style="fill: #f0a74a" x="1080" y="-71.9" width="0" height="14.95"/>
      <text font-size="12.8" style="fill: #000000;text-anchor:start;font-family:sans-serif;font-style:normal;font-weight:normal" x="1080" y="-60">
        <tspan x="1080" y="-60" xml:space="preserve"></tspan>
      </text>
    </g>
    <g>
      <rect style="fill: #f0a74a" x="1073.2" y="-73.175" width="13.6" height="26.35"/>
      <text font-size="22.5778" style="fill: #000000;text-anchor:middle;font-family:monospace;font-style:normal;font-weight:normal" x="1080" y="-52.175">
        <tspan x="1080" y="-52.175" xml:space="preserve">7</tspan>
      </text>
    </g>
    <g>
      <rect style="fill: #f0a74a" x="1100" y="-80" width="40" height="40"/>
      <rect style="fill: none; fill-opacity:0; stroke-width: 2; stroke: #000000" x="1100" y="-80" width="40" height="40"/>
    </g>
    <g>
      <rect style="fill: #f0a74a" x="1120" y="-71.9" width="0" height="14.95"/>
      <text font-size="12.8" style="fill: #000000;text-anchor:start;font-family:sans-serif;font-style:normal;font-weight:normal" x="1120" y="-60">
        <tspan x="1120" y="-60" xml:space="preserve"></tspan>
      </text>
    </g>
    <g>
      <rect style="fill: #f0a74a" x="1106.4" y="-73.175" width="27.2" height="26.35"/>
      <text font-size="22.5778" style="fill: #000000;text-anchor:middle;font-family:monospace;font-style:normal;font-weight:normal" x="1120" y="-52.175">
        <tspan x="1120" y="-52.175" xml:space="preserve">13</tspan>
      </text>
    </g>
  </g>
  <g>
    <line style="fill: none; fill-opacity:0; stroke-width: 2; stroke: #ffa500" x1="820" y1="-60" x2="928.025" y2="-60"/>
    <polygon style="fill: #ffa500" points="935.525,-60 925.525,-57 928.025,-60 925.525,-63 "/>
    <polygon style="fill: none; fill-opacity:0; stroke-width: 2; stroke: #ffa500" points="935.525,-60 925.525,-57 928.025,-60 925.525,-63 "/>
  </g>
  <g>
    <rect style="fill: #f0a74a" x="660" y="-80" width="160" height="40"/>
    <rect style="fill: none; fill-opacity:0; stroke-width: 2; stroke: #000000" x="660" y="-80" width="160" height="40"/>
  </g>
  <text font-size="12.8" style="fill: #000000;text-anchor:start;font-family:sans-serif;font-style:normal;font-weight:normal" x="740" y="-60">
    <tspan x="740" y="-60" xml:space="preserve"></tspan>
  </text>
  <text font-size="22.5778" style="fill: #000000;text-anchor:start;font-family:monospace;font-style:normal;font-weight:normal" x="660" y="-52.175">
    <tspan x="660" y="-52.175" xml:space="preserve"> storage_</tspan>
  </text>
  <g>
    <rect style="fill: #f0a74a" x="660" y="-40" width="160" height="40"/>
    <rect style="fill: none; fill-opacity:0; stroke-width: 2; stroke: #000000" x="660" y="-40" width="160" height="40"/>
  </g>
  <text font-size="22.5778" style="fill: #000000;text-anchor:start;font-family:monospace;font-style:normal;font-weight:normal" x="660" y="-12.175">
    <tspan x="660" y="-12.175" xml:space="preserve"> size_ = 5</tspan>
  </text>
  <g>
    <rect style="fill: #f0a74a" x="660" y="-120" width="160" height="40"/>
    <rect style="fill: none; fill-opacity:0; stroke-width: 2; stroke: #000000" x="660" y="-120" width="160" height="40"/>
  </g>
  <text font-size="12.8" style="fill: #000000;text-anchor:start;font-family:sans-serif;font-style:normal;font-weight:normal" x="740" y="-100">
    <tspan x="740" y="-100" xml:space="preserve"></tspan>
  </text>
  <text font-size="22.5778" style="fill: #000000;text-anchor:middle;font-family:monospace;font-style:normal;font-weight:normal" x="740" y="-92.175">
    <tspan x="740" y="-92.175" xml:space="preserve">Vector</tspan>
  </text>
  <g>
    <polygon style="fill: none; fill-opacity:0; stroke-width: 2; stroke: #f8f8f2" points="725,20 725,50 710,50 740,80 770,50 755,50 755,20 "/>
    <polygon style="fill: none; fill-opacity:0; stroke-width: 2; stroke: #f8f8f2" points="725,20 725,50 710,50 740,80 770,50 755,50 755,20 "/>
  </g>
  <g>
    <rect style="fill: #cc7676" x="660" y="140" width="160" height="40"/>
    <rect style="fill: none; fill-opacity:0; stroke-width: 2; stroke: #000000" x="660" y="140" width="160" height="40"/>
  </g>
  <text font-size="12.8" style="fill: #000000;text-anchor:start;font-family:sans-serif;font-style:normal;font-weight:normal" x="740" y="160">
    <tspan x="740" y="160" xml:space="preserve"></tspan>
  </text>
  <text font-size="22.5778" style="fill: #f8f8f2;text-anchor:start;font-family:monospace;font-style:normal;font-weight:normal" x="660" y="167.825">
    <tspan x="660" y="167.825" xml:space="preserve"> storage_</tspan>
  </text>
  <g>
    <rect style="fill: #cc7676" x="660" y="180" width="160" height="40"/>
    <rect style="fill: none; fill-opacity:0; stroke-width: 2; stroke: #000000" x="660" y="180" width="160" height="40"/>
  </g>
  <text font-size="22.5778" style="fill: #f8f8f2;text-anchor:start;font-family:monospace;font-style:normal;font-weight:normal" x="660" y="207.825">
    <tspan x="660" y="207.825" xml:space="preserve"> size_ = 5</tspan>
  </text>
  <g>
    <rect style="fill: #cc7676" x="660" y="100" width="160" height="40"/>
    <rect style="fill: none; fill-opacity:0; stroke-width: 2; stroke: #000000" x="660" y="100" width="160" height="40"/>
  </g>
  <text font-size="12.8" style="fill: #000000;text-anchor:start;font-family:sans-serif;font-style:normal;font-weight:normal" x="740" y="120">
    <tspan x="740" y="120" xml:space="preserve"></tspan>
  </text>
  <text font-size="22.5778" style="fill: #000000;text-anchor:middle;font-family:monospace;font-style:normal;font-weight:normal" x="740" y="127.825">
    <tspan x="740" y="127.825" xml:space="preserve">Vector</tspan>
  </text>
  <text font-size="33.8667" style="fill: #f8f8f2;text-anchor:middle;font-family:sans-serif;font-style:normal;font-weight:normal" x="920" y="-148.275">
    <tspan x="920" y="-148.275" xml:space="preserve">Copy</tspan>
  </text>
  <line style="fill: none; fill-opacity:0; stroke-width: 0.2; stroke: #a9aaa9" x1="320" y1="-200" x2="320" y2="240"/>
  <g>
    <g>
      <ellipse style="fill: none; fill-opacity:0; stroke-width: 2; stroke: #f8f8f2" cx="840" cy="-160" rx="20" ry="20"/>
      <ellipse style="fill: none; fill-opacity:0; stroke-width: 2; stroke: #f8f8f2" cx="840" cy="-160" rx="20" ry="20"/>
    </g>
    <text font-size="28.2222" style="fill: #f8f8f2;text-anchor:middle;font-family:sans-serif;font-style:normal;font-weight:normal" x="840" y="-150.25">
      <tspan x="840" y="-150.25" xml:space="preserve">1</tspan>
    </text>
  </g>
  <g>
    <rect style="fill: #cc7676" x="940" y="140" width="40" height="40"/>
    <rect style="fill: none; fill-opacity:0; stroke-width: 2; stroke: #000000" x="940" y="140" width="40" height="40"/>
  </g>
  <text font-size="12.8" style="fill: #000000;text-anchor:start;font-family:sans-serif;font-style:normal;font-weight:normal" x="960" y="160">
    <tspan x="960" y="160" xml:space="preserve"></tspan>
  </text>
  <text font-size="22.5778" style="fill: #f8f8f2;text-anchor:middle;font-family:monospace;font-style:normal;font-weight:normal" x="960" y="167.825">
    <tspan x="960" y="167.825" xml:space="preserve">1</tspan>
  </text>
  <g>
    <rect style="fill: #cc7676" x="980" y="140" width="40" height="40"/>
    <rect style="fill: none; fill-opacity:0; stroke-width: 2; stroke: #000000" x="980" y="140" width="40" height="40"/>
  </g>
  <text font-size="12.8" style="fill: #000000;text-anchor:start;font-family:sans-serif;font-style:normal;font-weight:normal" x="1000" y="160">
    <tspan x="1000" y="160" xml:space="preserve"></tspan>
  </text>
  <text font-size="22.5778" style="fill: #f8f8f2;text-anchor:middle;font-family:monospace;font-style:normal;font-weight:normal" x="1000" y="167.825">
    <tspan x="1000" y="167.825" xml:space="preserve">42</tspan>
  </text>
  <g>
    <rect style="fill: #cc7676" x="1020" y="140" width="40" height="40"/>
    <rect style="fill: none; fill-opacity:0; stroke-width: 2; stroke: #000000" x="1020" y="140" width="40" height="40"/>
  </g>
  <text font-size="12.8" style="fill: #000000;text-anchor:start;font-family:sans-serif;font-style:normal;font-weight:normal" x="1040" y="160">
    <tspan x="1040" y="160" xml:space="preserve"></tspan>
  </text>
  <text font-size="22.5778" style="fill: #f8f8f2;text-anchor:middle;font-family:monospace;font-style:normal;font-weight:normal" x="1040" y="167.825">
    <tspan x="1040" y="167.825" xml:space="preserve">23</tspan>
  </text>
  <g>
    <rect style="fill: #cc7676" x="1060" y="140" width="40" height="40"/>
    <rect style="fill: none; fill-opacity:0; stroke-width: 2; stroke: #000000" x="1060" y="140" width="40" height="40"/>
  </g>
  <text font-size="12.8" style="fill: #000000;text-anchor:start;font-family:sans-serif;font-style:normal;font-weight:normal" x="1080" y="160">
    <tspan x="1080" y="160" xml:space="preserve"></tspan>
  </text>
  <text font-size="22.5778" style="fill: #f8f8f2;text-anchor:middle;font-family:monospace;font-style:normal;font-weight:normal" x="1080" y="167.825">
    <tspan x="1080" y="167.825" xml:space="preserve">7</tspan>
  </text>
  <g>
    <rect style="fill: #cc7676" x="1100" y="140" width="40" height="40"/>
    <rect style="fill: none; fill-opacity:0; stroke-width: 2; stroke: #000000" x="1100" y="140" width="40" height="40"/>
  </g>
  <text font-size="12.8" style="fill: #000000;text-anchor:start;font-family:sans-serif;font-style:normal;font-weight:normal" x="1120" y="160">
    <tspan x="1120" y="160" xml:space="preserve"></tspan>
  </text>
  <text font-size="22.5778" style="fill: #f8f8f2;text-anchor:middle;font-family:monospace;font-style:normal;font-weight:normal" x="1120" y="167.825">
    <tspan x="1120" y="167.825" xml:space="preserve">13</tspan>
  </text>
  <g>
    <polygon style="fill: none; fill-opacity:0; stroke-width: 2; stroke: #f8f8f2" points="1010,-10 1010,50 980,50 1040,110 1100,50 1070,50 1070,-10 "/>
    <polygon style="fill: none; fill-opacity:0; stroke-width: 2; stroke: #f8f8f2" points="1010,-10 1010,50 980,50 1040,110 1100,50 1070,50 1070,-10 "/>
  </g>
  <line style="fill: none; fill-opacity:0; stroke-width: 0.2; stroke: #a9aaa9" x1="1520" y1="-200" x2="1520" y2="240"/>
</svg>
