<?xml version="1.0" encoding="UTF-8" standalone="no"?>
<!DOCTYPE svg PUBLIC "-//W3C//DTD SVG 1.0//EN" "http://www.w3.org/TR/2001/PR-SVG-20010719/DTD/svg10.dtd">
<svg width="61cm" height="26cm" viewBox="599 -201 1201 502" xmlns="http://www.w3.org/2000/svg" xmlns:xlink="http://www.w3.org/1999/xlink">
  <g>
    <line style="fill: none; fill-opacity:0; stroke-width: 2; stroke: #cc2f2f" x1="820" y1="160" x2="934.742" y2="-50.3606"/>
    <polygon style="fill: #cc2f2f" points="938.334,-56.9448 936.179,-46.7293 934.742,-50.3606 930.911,-49.6024 "/>
    <polygon style="fill: none; fill-opacity:0; stroke-width: 2; stroke: #cc2f2f" points="938.334,-56.9448 936.179,-46.7293 934.742,-50.3606 930.911,-49.6024 "/>
  </g>
  <g>
    <line style="fill: none; fill-opacity:0; stroke-width: 2; stroke: #ffa500" x1="820" y1="-60" x2="928.025" y2="-60"/>
    <polygon style="fill: #ffa500" points="935.525,-60 925.525,-57 928.025,-60 925.525,-63 "/>
    <polygon style="fill: none; fill-opacity:0; stroke-width: 2; stroke: #ffa500" points="935.525,-60 925.525,-57 928.025,-60 925.525,-63 "/>
  </g>
  <g>
    <rect style="fill: #f0a74a" x="660" y="-80" width="160" height="40"/>
    <rect style="fill: none; fill-opacity:0; stroke-width: 2; stroke: #000000" x="660" y="-80" width="160" height="40"/>
  </g>
  <text font-size="12.8" style="fill: #000000;text-anchor:start;font-family:sans-serif;font-style:normal;font-weight:normal" x="740" y="-60">
    <tspan x="740" y="-60" xml:space="preserve"></tspan>
  </text>
  <text font-size="22.5778" style="fill: #000000;text-anchor:start;font-family:monospace;font-style:normal;font-weight:normal" x="660" y="-52.175">
    <tspan x="660" y="-52.175" xml:space="preserve"> storage_</tspan>
  </text>
  <g>
    <rect style="fill: #f0a74a" x="660" y="-40" width="160" height="40"/>
    <rect style="fill: none; fill-opacity:0; stroke-width: 2; stroke: #000000" x="660" y="-40" width="160" height="40"/>
  </g>
  <text font-size="22.5778" style="fill: #000000;text-anchor:start;font-family:monospace;font-style:normal;font-weight:normal" x="660" y="-12.175">
    <tspan x="660" y="-12.175" xml:space="preserve"> size_ = 5</tspan>
  </text>
  <g>
    <rect style="fill: #f0a74a" x="660" y="-120" width="160" height="40"/>
    <rect style="fill: none; fill-opacity:0; stroke-width: 2; stroke: #000000" x="660" y="-120" width="160" height="40"/>
  </g>
  <text font-size="12.8" style="fill: #000000;text-anchor:start;font-family:sans-serif;font-style:normal;font-weight:normal" x="740" y="-100">
    <tspan x="740" y="-100" xml:space="preserve"></tspan>
  </text>
  <text font-size="22.5778" style="fill: #000000;text-anchor:middle;font-family:monospace;font-style:normal;font-weight:normal" x="740" y="-92.175">
    <tspan x="740" y="-92.175" xml:space="preserve">Vector</tspan>
  </text>
  <g>
    <polygon style="fill: none; fill-opacity:0; stroke-width: 2; stroke: #f8f8f2" points="725,20 725,50 710,50 740,80 770,50 755,50 755,20 "/>
    <polygon style="fill: none; fill-opacity:0; stroke-width: 2; stroke: #f8f8f2" points="725,20 725,50 710,50 740,80 770,50 755,50 755,20 "/>
  </g>
  <g>
    <rect style="fill: #cc7676" x="660" y="140" width="160" height="40"/>
    <rect style="fill: none; fill-opacity:0; stroke-width: 2; stroke: #000000" x="660" y="140" width="160" height="40"/>
  </g>
  <text font-size="12.8" style="fill: #000000;text-anchor:start;font-family:sans-serif;font-style:normal;font-weight:normal" x="740" y="160">
    <tspan x="740" y="160" xml:space="preserve"></tspan>
  </text>
  <text font-size="22.5778" style="fill: #f8f8f2;text-anchor:start;font-family:monospace;font-style:normal;font-weight:normal" x="660" y="167.825">
    <tspan x="660" y="167.825" xml:space="preserve"> storage_</tspan>
  </text>
  <g>
    <rect style="fill: #cc7676" x="660" y="180" width="160" height="40"/>
    <rect style="fill: none; fill-opacity:0; stroke-width: 2; stroke: #000000" x="660" y="180" width="160" height="40"/>
  </g>
  <text font-size="22.5778" style="fill: #f8f8f2;text-anchor:start;font-family:monospace;font-style:normal;font-weight:normal" x="660" y="207.825">
    <tspan x="660" y="207.825" xml:space="preserve"> size_ = 5</tspan>
  </text>
  <g>
    <rect style="fill: #cc7676" x="660" y="100" width="160" height="40"/>
    <rect style="fill: none; fill-opacity:0; stroke-width: 2; stroke: #000000" x="660" y="100" width="160" height="40"/>
  </g>
  <text font-size="12.8" style="fill: #000000;text-anchor:start;font-family:sans-serif;font-style:normal;font-weight:normal" x="740" y="120">
    <tspan x="740" y="120" xml:space="preserve"></tspan>
  </text>
  <text font-size="22.5778" style="fill: #000000;text-anchor:middle;font-family:monospace;font-style:normal;font-weight:normal" x="740" y="127.825">
    <tspan x="740" y="127.825" xml:space="preserve">Vector</tspan>
  </text>
  <g>
    <line style="fill: none; fill-opacity:0; stroke-width: 2; stroke: #cc2f2f" x1="1420" y1="160" x2="1529.02" y2="160"/>
    <polygon style="fill: #cc2f2f" points="1536.52,160 1526.52,163 1529.02,160 1526.52,157 "/>
    <polygon style="fill: none; fill-opacity:0; stroke-width: 2; stroke: #cc2f2f" points="1536.52,160 1526.52,163 1529.02,160 1526.52,157 "/>
  </g>
  <g>
    <line style="fill: none; fill-opacity:0; stroke-width: 2; stroke: #ffa500" x1="1420" y1="-60" x2="1529.02" y2="-60"/>
    <polygon style="fill: #ffa500" points="1536.52,-60 1526.52,-57 1529.02,-60 1526.52,-63 "/>
    <polygon style="fill: none; fill-opacity:0; stroke-width: 2; stroke: #ffa500" points="1536.52,-60 1526.52,-57 1529.02,-60 1526.52,-63 "/>
  </g>
  <g>
    <g>
      <rect style="fill: #cc7676" x="1260" y="140" width="160" height="40"/>
      <rect style="fill: none; fill-opacity:0; stroke-width: 2; stroke: #000000" x="1260" y="140" width="160" height="40"/>
    </g>
    <text font-size="12.8" style="fill: #000000;text-anchor:start;font-family:sans-serif;font-style:normal;font-weight:normal" x="1340" y="160">
      <tspan x="1340" y="160" xml:space="preserve"></tspan>
    </text>
    <text font-size="22.5778" style="fill: #000000;text-anchor:start;font-family:monospace;font-style:normal;font-weight:normal" x="1260" y="167.825">
      <tspan x="1260" y="167.825" xml:space="preserve"> storage_</tspan>
    </text>
    <g>
      <rect style="fill: #cc7676" x="1260" y="180" width="160" height="40"/>
      <rect style="fill: none; fill-opacity:0; stroke-width: 2; stroke: #000000" x="1260" y="180" width="160" height="40"/>
    </g>
    <text font-size="22.5778" style="fill: #000000;text-anchor:start;font-family:monospace;font-style:normal;font-weight:normal" x="1260" y="207.825">
      <tspan x="1260" y="207.825" xml:space="preserve"> size_ = 5</tspan>
    </text>
    <g>
      <rect style="fill: #cc7676" x="1260" y="100" width="160" height="40"/>
      <rect style="fill: none; fill-opacity:0; stroke-width: 2; stroke: #000000" x="1260" y="100" width="160" height="40"/>
    </g>
    <text font-size="12.8" style="fill: #000000;text-anchor:start;font-family:sans-serif;font-style:normal;font-weight:normal" x="1340" y="120">
      <tspan x="1340" y="120" xml:space="preserve"></tspan>
    </text>
    <text font-size="22.5778" style="fill: #000000;text-anchor:middle;font-family:monospace;font-style:normal;font-weight:normal" x="1340" y="127.825">
      <tspan x="1340" y="127.825" xml:space="preserve">Vector</tspan>
    </text>
  </g>
  <text font-size="33.8667" style="fill: #f8f8f2;text-anchor:middle;font-family:sans-serif;font-style:normal;font-weight:normal" x="920" y="-148.275">
    <tspan x="920" y="-148.275" xml:space="preserve">Shallow Copy</tspan>
  </text>
  <text font-size="33.8667" style="fill: #f8f8f2;text-anchor:middle;font-family:sans-serif;font-style:normal;font-weight:normal" x="1520" y="-148.275">
    <tspan x="1520" y="-148.275" xml:space="preserve">Nullify Source</tspan>
  </text>
  <line style="fill: none; fill-opacity:0; stroke-width: 2; stroke: #a9aaa9" x1="1200" y1="-200" x2="1200" y2="300"/>
  <line style="fill: none; fill-opacity:0; stroke-width: 0.2; stroke: #a9aaa9" x1="600" y1="-200" x2="600" y2="300"/>
  <line style="fill: none; fill-opacity:0; stroke-width: 0.2; stroke: #a9aaa9" x1="1800" y1="-200" x2="1800" y2="300"/>
  <g>
    <g>
      <ellipse style="fill: none; fill-opacity:0; stroke-width: 2; stroke: #f8f8f2" cx="760" cy="-160" rx="20" ry="20"/>
      <ellipse style="fill: none; fill-opacity:0; stroke-width: 2; stroke: #f8f8f2" cx="760" cy="-160" rx="20" ry="20"/>
    </g>
    <text font-size="28.2222" style="fill: #f8f8f2;text-anchor:middle;font-family:sans-serif;font-style:normal;font-weight:normal" x="760" y="-150.25">
      <tspan x="760" y="-150.25" xml:space="preserve">1</tspan>
    </text>
  </g>
  <g>
    <g>
      <ellipse style="fill: none; fill-opacity:0; stroke-width: 2; stroke: #f8f8f2" cx="1360" cy="-160" rx="20" ry="20"/>
      <ellipse style="fill: none; fill-opacity:0; stroke-width: 2; stroke: #f8f8f2" cx="1360" cy="-160" rx="20" ry="20"/>
    </g>
    <text font-size="28.2222" style="fill: #f8f8f2;text-anchor:middle;font-family:sans-serif;font-style:normal;font-weight:normal" x="1360" y="-150.25">
      <tspan x="1360" y="-150.25" xml:space="preserve">2</tspan>
    </text>
  </g>
  <g>
    <g>
      <rect style="fill: #f0a74a" x="940" y="-80" width="40" height="40"/>
      <rect style="fill: none; fill-opacity:0; stroke-width: 2; stroke: #000000" x="940" y="-80" width="40" height="40"/>
    </g>
    <g>
      <rect style="fill: #f0a74a" x="960" y="-71.9" width="0" height="14.95"/>
      <text font-size="12.8" style="fill: #000000;text-anchor:start;font-family:sans-serif;font-style:normal;font-weight:normal" x="960" y="-60">
        <tspan x="960" y="-60" xml:space="preserve"></tspan>
      </text>
    </g>
    <g>
      <rect style="fill: #f0a74a" x="953.2" y="-73.175" width="13.6" height="26.35"/>
      <text font-size="22.5778" style="fill: #000000;text-anchor:middle;font-family:monospace;font-style:normal;font-weight:normal" x="960" y="-52.175">
        <tspan x="960" y="-52.175" xml:space="preserve">1</tspan>
      </text>
    </g>
    <g>
      <rect style="fill: #f0a74a" x="980" y="-80" width="40" height="40"/>
      <rect style="fill: none; fill-opacity:0; stroke-width: 2; stroke: #000000" x="980" y="-80" width="40" height="40"/>
    </g>
    <g>
      <rect style="fill: #f0a74a" x="1000" y="-71.9" width="0" height="14.95"/>
      <text font-size="12.8" style="fill: #000000;text-anchor:start;font-family:sans-serif;font-style:normal;font-weight:normal" x="1000" y="-60">
        <tspan x="1000" y="-60" xml:space="preserve"></tspan>
      </text>
    </g>
    <g>
      <rect style="fill: #f0a74a" x="986.4" y="-73.175" width="27.2" height="26.35"/>
      <text font-size="22.5778" style="fill: #000000;text-anchor:middle;font-family:monospace;font-style:normal;font-weight:normal" x="1000" y="-52.175">
        <tspan x="1000" y="-52.175" xml:space="preserve">42</tspan>
      </text>
    </g>
    <g>
      <rect style="fill: #f0a74a" x="1020" y="-80" width="40" height="40"/>
      <rect style="fill: none; fill-opacity:0; stroke-width: 2; stroke: #000000" x="1020" y="-80" width="40" height="40"/>
    </g>
    <g>
      <rect style="fill: #f0a74a" x="1040" y="-71.9" width="0" height="14.95"/>
      <text font-size="12.8" style="fill: #000000;text-anchor:start;font-family:sans-serif;font-style:normal;font-weight:normal" x="1040" y="-60">
        <tspan x="1040" y="-60" xml:space="preserve"></tspan>
      </text>
    </g>
    <g>
      <rect style="fill: #f0a74a" x="1026.4" y="-73.175" width="27.2" height="26.35"/>
      <text font-size="22.5778" style="fill: #000000;text-anchor:middle;font-family:monospace;font-style:normal;font-weight:normal" x="1040" y="-52.175">
        <tspan x="1040" y="-52.175" xml:space="preserve">23</tspan>
      </text>
    </g>
    <g>
      <rect style="fill: #f0a74a" x="1060" y="-80" width="40" height="40"/>
      <rect style="fill: none; fill-opacity:0; stroke-width: 2; stroke: #000000" x="1060" y="-80" width="40" height="40"/>
    </g>
    <g>
      <rect style="fill: #f0a74a" x="1080" y="-71.9" width="0" height="14.95"/>
      <text font-size="12.8" style="fill: #000000;text-anchor:start;font-family:sans-serif;font-style:normal;font-weight:normal" x="1080" y="-60">
        <tspan x="1080" y="-60" xml:space="preserve"></tspan>
      </text>
    </g>
    <g>
      <rect style="fill: #f0a74a" x="1073.2" y="-73.175" width="13.6" height="26.35"/>
      <text font-size="22.5778" style="fill: #000000;text-anchor:middle;font-family:monospace;font-style:normal;font-weight:normal" x="1080" y="-52.175">
        <tspan x="1080" y="-52.175" xml:space="preserve">7</tspan>
      </text>
    </g>
    <g>
      <rect style="fill: #f0a74a" x="1100" y="-80" width="40" height="40"/>
      <rect style="fill: none; fill-opacity:0; stroke-width: 2; stroke: #000000" x="1100" y="-80" width="40" height="40"/>
    </g>
    <g>
      <rect style="fill: #f0a74a" x="1120" y="-71.9" width="0" height="14.95"/>
      <text font-size="12.8" style="fill: #000000;text-anchor:start;font-family:sans-serif;font-style:normal;font-weight:normal" x="1120" y="-60">
        <tspan x="1120" y="-60" xml:space="preserve"></tspan>
      </text>
    </g>
    <g>
      <rect style="fill: #f0a74a" x="1106.4" y="-73.175" width="27.2" height="26.35"/>
      <text font-size="22.5778" style="fill: #000000;text-anchor:middle;font-family:monospace;font-style:normal;font-weight:normal" x="1120" y="-52.175">
        <tspan x="1120" y="-52.175" xml:space="preserve">13</tspan>
      </text>
    </g>
  </g>
  <g>
    <rect style="fill: #f0a74a" x="1260" y="-80" width="160" height="40"/>
    <rect style="fill: none; fill-opacity:0; stroke-width: 2; stroke: #000000" x="1260" y="-80" width="160" height="40"/>
  </g>
  <text font-size="12.8" style="fill: #000000;text-anchor:start;font-family:sans-serif;font-style:normal;font-weight:normal" x="1340" y="-60">
    <tspan x="1340" y="-60" xml:space="preserve"></tspan>
  </text>
  <text font-size="22.5778" style="fill: #f8f8f2;text-anchor:start;font-family:monospace;font-style:normal;font-weight:normal" x="1260" y="-52.175">
    <tspan x="1260" y="-52.175" xml:space="preserve"> storage_</tspan>
  </text>
  <g>
    <rect style="fill: #f0a74a" x="1260" y="-40" width="160" height="40"/>
    <rect style="fill: none; fill-opacity:0; stroke-width: 2; stroke: #000000" x="1260" y="-40" width="160" height="40"/>
  </g>
  <text font-size="22.5778" style="fill: #f8f8f2;text-anchor:start;font-family:monospace;font-style:normal;font-weight:normal" x="1260" y="-12.175">
    <tspan x="1260" y="-12.175" xml:space="preserve"> size_ = 0</tspan>
  </text>
  <g>
    <rect style="fill: #f0a74a" x="1260" y="-120" width="160" height="40"/>
    <rect style="fill: none; fill-opacity:0; stroke-width: 2; stroke: #000000" x="1260" y="-120" width="160" height="40"/>
  </g>
  <text font-size="12.8" style="fill: #000000;text-anchor:start;font-family:sans-serif;font-style:normal;font-weight:normal" x="1340" y="-100">
    <tspan x="1340" y="-100" xml:space="preserve"></tspan>
  </text>
  <text font-size="22.5778" style="fill: #000000;text-anchor:middle;font-family:monospace;font-style:normal;font-weight:normal" x="1340" y="-92.175">
    <tspan x="1340" y="-92.175" xml:space="preserve">Vector</tspan>
  </text>
  <g>
    <g>
      <rect style="fill: #f0a74a" x="1540" y="140" width="40" height="40"/>
      <rect style="fill: none; fill-opacity:0; stroke-width: 2; stroke: #000000" x="1540" y="140" width="40" height="40"/>
    </g>
    <g>
      <rect style="fill: #f0a74a" x="1560" y="148.1" width="0" height="14.95"/>
      <text font-size="12.8" style="fill: #000000;text-anchor:start;font-family:sans-serif;font-style:normal;font-weight:normal" x="1560" y="160">
        <tspan x="1560" y="160" xml:space="preserve"></tspan>
      </text>
    </g>
    <g>
      <rect style="fill: #f0a74a" x="1553.2" y="146.825" width="13.6" height="26.35"/>
      <text font-size="22.5778" style="fill: #000000;text-anchor:middle;font-family:monospace;font-style:normal;font-weight:normal" x="1560" y="167.825">
        <tspan x="1560" y="167.825" xml:space="preserve">1</tspan>
      </text>
    </g>
    <g>
      <rect style="fill: #f0a74a" x="1580" y="140" width="40" height="40"/>
      <rect style="fill: none; fill-opacity:0; stroke-width: 2; stroke: #000000" x="1580" y="140" width="40" height="40"/>
    </g>
    <g>
      <rect style="fill: #f0a74a" x="1600" y="148.1" width="0" height="14.95"/>
      <text font-size="12.8" style="fill: #000000;text-anchor:start;font-family:sans-serif;font-style:normal;font-weight:normal" x="1600" y="160">
        <tspan x="1600" y="160" xml:space="preserve"></tspan>
      </text>
    </g>
    <g>
      <rect style="fill: #f0a74a" x="1586.4" y="146.825" width="27.2" height="26.35"/>
      <text font-size="22.5778" style="fill: #000000;text-anchor:middle;font-family:monospace;font-style:normal;font-weight:normal" x="1600" y="167.825">
        <tspan x="1600" y="167.825" xml:space="preserve">42</tspan>
      </text>
    </g>
    <g>
      <rect style="fill: #f0a74a" x="1620" y="140" width="40" height="40"/>
      <rect style="fill: none; fill-opacity:0; stroke-width: 2; stroke: #000000" x="1620" y="140" width="40" height="40"/>
    </g>
    <g>
      <rect style="fill: #f0a74a" x="1640" y="148.1" width="0" height="14.95"/>
      <text font-size="12.8" style="fill: #000000;text-anchor:start;font-family:sans-serif;font-style:normal;font-weight:normal" x="1640" y="160">
        <tspan x="1640" y="160" xml:space="preserve"></tspan>
      </text>
    </g>
    <g>
      <rect style="fill: #f0a74a" x="1626.4" y="146.825" width="27.2" height="26.35"/>
      <text font-size="22.5778" style="fill: #000000;text-anchor:middle;font-family:monospace;font-style:normal;font-weight:normal" x="1640" y="167.825">
        <tspan x="1640" y="167.825" xml:space="preserve">23</tspan>
      </text>
    </g>
    <g>
      <rect style="fill: #f0a74a" x="1660" y="140" width="40" height="40"/>
      <rect style="fill: none; fill-opacity:0; stroke-width: 2; stroke: #000000" x="1660" y="140" width="40" height="40"/>
    </g>
    <g>
      <rect style="fill: #f0a74a" x="1680" y="148.1" width="0" height="14.95"/>
      <text font-size="12.8" style="fill: #000000;text-anchor:start;font-family:sans-serif;font-style:normal;font-weight:normal" x="1680" y="160">
        <tspan x="1680" y="160" xml:space="preserve"></tspan>
      </text>
    </g>
    <g>
      <rect style="fill: #f0a74a" x="1673.2" y="146.825" width="13.6" height="26.35"/>
      <text font-size="22.5778" style="fill: #000000;text-anchor:middle;font-family:monospace;font-style:normal;font-weight:normal" x="1680" y="167.825">
        <tspan x="1680" y="167.825" xml:space="preserve">7</tspan>
      </text>
    </g>
    <g>
      <rect style="fill: #f0a74a" x="1700" y="140" width="40" height="40"/>
      <rect style="fill: none; fill-opacity:0; stroke-width: 2; stroke: #000000" x="1700" y="140" width="40" height="40"/>
    </g>
    <g>
      <rect style="fill: #f0a74a" x="1720" y="148.1" width="0" height="14.95"/>
      <text font-size="12.8" style="fill: #000000;text-anchor:start;font-family:sans-serif;font-style:normal;font-weight:normal" x="1720" y="160">
        <tspan x="1720" y="160" xml:space="preserve"></tspan>
      </text>
    </g>
    <g>
      <rect style="fill: #f0a74a" x="1706.4" y="146.825" width="27.2" height="26.35"/>
      <text font-size="22.5778" style="fill: #000000;text-anchor:middle;font-family:monospace;font-style:normal;font-weight:normal" x="1720" y="167.825">
        <tspan x="1720" y="167.825" xml:space="preserve">13</tspan>
      </text>
    </g>
  </g>
</svg>
