<?xml version="1.0" encoding="UTF-8" standalone="no"?>
<!DOCTYPE svg PUBLIC "-//W3C//DTD SVG 1.0//EN" "http://www.w3.org/TR/2001/PR-SVG-20010719/DTD/svg10.dtd">
<svg width="32cm" height="21cm" viewBox="368 -102 623 403" xmlns="http://www.w3.org/2000/svg" xmlns:xlink="http://www.w3.org/1999/xlink">
  <g>
    <rect style="fill: #abc4cb" x="370" y="-100" width="620" height="400"/>
    <rect style="fill: none; fill-opacity:0; stroke-width: 2; stroke: #000000" x="370" y="-100" width="620" height="400"/>
  </g>
  <g>
    <rect style="fill: #23d89e" x="380" y="-40" width="330" height="330"/>
    <rect style="fill: none; fill-opacity:0; stroke-width: 2; stroke: #000000" x="380" y="-40" width="330" height="330"/>
  </g>
  <text font-size="14.1111" style="fill: #000000;text-anchor:middle;font-family:monospace;font-style:normal;font-weight:normal" x="544.5" y="-15.125">
    <tspan x="544.5" y="-15.125" xml:space="preserve">Code (compiled)</tspan>
  </text>
  <text font-size="12.8" style="fill: #000000;text-anchor:start;font-family:sans-serif;font-style:normal;font-weight:normal" x="580" y="-20">
    <tspan x="580" y="-20" xml:space="preserve"></tspan>
  </text>
  <text font-size="12.8" style="fill: #000000;text-anchor:start;font-family:sans-serif;font-style:normal;font-weight:normal" x="545" y="125">
    <tspan x="545" y="125" xml:space="preserve"></tspan>
  </text>
  <text font-size="12.8" style="fill: #000000;text-anchor:start;font-family:sans-serif;font-style:normal;font-weight:normal" x="420" y="10">
    <tspan x="420" y="10" xml:space="preserve"></tspan>
  </text>
  <g>
    <rect style="fill: #97d8c3" x="390" y="0" width="310" height="140"/>
    <rect style="fill: none; fill-opacity:0; stroke-width: 2; stroke: #000000" x="390" y="0" width="310" height="140"/>
  </g>
  <text font-size="11.2889" style="fill: #000000;text-anchor:start;font-family:monospace;font-style:normal;font-weight:normal" x="400" y="20.5">
    <tspan x="400" y="20.5" xml:space="preserve">int main(int argc, char *argv[]) {</tspan>
    <tspan x="400" y="34.6111" xml:space="preserve"></tspan>
    <tspan x="400" y="48.7222" xml:space="preserve">    ...</tspan>
    <tspan x="400" y="62.8333" xml:space="preserve"></tspan>
    <tspan x="400" y="76.9444" xml:space="preserve">    Person stackPerson("John");</tspan>
    <tspan x="400" y="91.0556" xml:space="preserve">    Person heapPerson = new Person("Jack");</tspan>
    <tspan x="400" y="105.167" xml:space="preserve"></tspan>
    <tspan x="400" y="119.278" xml:space="preserve">    ...</tspan>
  </text>
  <g>
    <rect style="fill: #97d8c3" x="390" y="150" width="310" height="60"/>
    <rect style="fill: none; fill-opacity:0; stroke-width: 2; stroke: #000000" x="390" y="150" width="310" height="60"/>
  </g>
  <text font-size="11.2889" style="fill: #000000;text-anchor:start;font-family:monospace;font-style:normal;font-weight:normal" x="400" y="170.5">
    <tspan x="400" y="170.5" xml:space="preserve">int Person::age() const {</tspan>
    <tspan x="400" y="184.611" xml:space="preserve">    return m_age;</tspan>
    <tspan x="400" y="198.722" xml:space="preserve">}</tspan>
  </text>
  <g>
    <rect style="fill: #97d8c3" x="390" y="220" width="310" height="60"/>
    <rect style="fill: none; fill-opacity:0; stroke-width: 2; stroke: #000000" x="390" y="220" width="310" height="60"/>
  </g>
  <text font-size="11.2889" style="fill: #000000;text-anchor:start;font-family:monospace;font-style:normal;font-weight:normal" x="400" y="240.5">
    <tspan x="400" y="240.5" xml:space="preserve">void Person::haveBirthdayParty() {</tspan>
    <tspan x="400" y="254.611" xml:space="preserve">    ++m_age;</tspan>
    <tspan x="400" y="268.722" xml:space="preserve">}</tspan>
  </text>
  <g>
    <rect style="fill: #ffc966" x="720" y="-20" width="260" height="140"/>
    <rect style="fill: none; fill-opacity:0; stroke-width: 2; stroke: #000000" x="720" y="-20" width="260" height="140"/>
  </g>
  <g>
    <rect style="fill: #ffe4b3" x="730" y="20" width="240" height="90"/>
    <rect style="fill: none; fill-opacity:0; stroke-width: 2; stroke: #000000" x="730" y="20" width="240" height="90"/>
  </g>
  <text font-size="11.2889" style="fill: #000000;text-anchor:start;font-family:monospace;font-style:normal;font-weight:normal" x="740" y="40.5">
    <tspan x="740" y="40.5" xml:space="preserve">stackPerson {</tspan>
    <tspan x="740" y="54.6111" xml:space="preserve">    string m_name("John");</tspan>
    <tspan x="740" y="68.7222" xml:space="preserve">    int m_socialInsuranceNumber;</tspan>
    <tspan x="740" y="82.8333" xml:space="preserve">    int m_age;</tspan>
    <tspan x="740" y="96.9444" xml:space="preserve">}</tspan>
  </text>
  <g>
    <rect style="fill: #cc7676" x="720" y="130" width="260" height="140"/>
    <rect style="fill: none; fill-opacity:0; stroke-width: 2; stroke: #000000" x="720" y="130" width="260" height="140"/>
  </g>
  <g>
    <rect style="fill: #cca3a3" x="730" y="170" width="240" height="90"/>
    <rect style="fill: none; fill-opacity:0; stroke-width: 2; stroke: #000000" x="730" y="170" width="240" height="90"/>
  </g>
  <text font-size="11.2889" style="fill: #000000;text-anchor:start;font-family:monospace;font-style:normal;font-weight:normal" x="740" y="190.5">
    <tspan x="740" y="190.5" xml:space="preserve">heapPerson {</tspan>
    <tspan x="740" y="204.611" xml:space="preserve">    string m_name("Jack");</tspan>
    <tspan x="740" y="218.722" xml:space="preserve">    int m_socialInsuranceNumber;</tspan>
    <tspan x="740" y="232.833" xml:space="preserve">    int m_age;</tspan>
    <tspan x="740" y="246.944" xml:space="preserve">}</tspan>
  </text>
  <text font-size="14.1111" style="fill: #000000;text-anchor:middle;font-family:monospace;font-style:normal;font-weight:normal" x="850" y="4.875">
    <tspan x="850" y="4.875" xml:space="preserve">Stack</tspan>
  </text>
  <text font-size="14.1111" style="fill: #000000;text-anchor:middle;font-family:monospace;font-style:normal;font-weight:normal" x="850" y="154.875">
    <tspan x="850" y="154.875" xml:space="preserve">Heap</tspan>
  </text>
  <text font-size="22.5778" style="fill: #000000;text-anchor:middle;font-family:monospace;font-style:normal;font-weight:normal" x="680" y="-62.175">
    <tspan x="680" y="-62.175" xml:space="preserve">Memory</tspan>
  </text>
</svg>
