<?xml version="1.0" encoding="UTF-8" standalone="no"?>
<!DOCTYPE svg PUBLIC "-//W3C//DTD SVG 1.0//EN" "http://www.w3.org/TR/2001/PR-SVG-20010719/DTD/svg10.dtd">
<svg width="30cm" height="17cm" viewBox="388 -92 593 335" xmlns="http://www.w3.org/2000/svg" xmlns:xlink="http://www.w3.org/1999/xlink">
  <g>
    <rect style="fill: #ffc966" x="390" y="-90" width="190" height="40"/>
    <rect style="fill: none; fill-opacity:0; stroke-width: 2; stroke: #000000" x="390" y="-90" width="190" height="40"/>
  </g>
  <text font-size="12.8" style="fill: #000000;text-anchor:start;font-family:sans-serif;font-style:normal;font-weight:normal" x="580" y="-20">
    <tspan x="580" y="-20" xml:space="preserve"></tspan>
  </text>
  <text font-size="12.8" style="fill: #000000;text-anchor:start;font-family:sans-serif;font-style:normal;font-weight:normal" x="485" y="-70">
    <tspan x="485" y="-70" xml:space="preserve"></tspan>
  </text>
  <text font-size="12.8" style="fill: #000000;text-anchor:start;font-family:sans-serif;font-style:normal;font-weight:normal" x="420" y="10">
    <tspan x="420" y="10" xml:space="preserve"></tspan>
  </text>
  <g>
    <rect style="fill: #97d8c3" x="390" y="-20" width="190" height="230"/>
    <rect style="fill: none; fill-opacity:0; stroke-width: 2; stroke: #000000" x="390" y="-20" width="190" height="230"/>
  </g>
  <text font-size="11.2889" style="fill: #000000;text-anchor:start;font-family:monospace;font-style:normal;font-weight:normal" x="400" y="0.478564">
    <tspan x="400" y="0.478564" xml:space="preserve">void threadA (void*) {</tspan>
    <tspan x="400" y="14.5897" xml:space="preserve"></tspan>
    <tspan x="400" y="28.7008" xml:space="preserve">    func1();</tspan>
    <tspan x="400" y="42.8119" xml:space="preserve"></tspan>
    <tspan x="400" y="56.923" xml:space="preserve"></tspan>
    <tspan x="400" y="71.0341" xml:space="preserve"></tspan>
    <tspan x="400" y="85.1452" xml:space="preserve"></tspan>
    <tspan x="400" y="99.2563" xml:space="preserve">    ...</tspan>
    <tspan x="400" y="113.367" xml:space="preserve"></tspan>
    <tspan x="400" y="127.479" xml:space="preserve"></tspan>
    <tspan x="400" y="141.59" xml:space="preserve"></tspan>
    <tspan x="400" y="155.701" xml:space="preserve"></tspan>
    <tspan x="400" y="169.812" xml:space="preserve">    func3();</tspan>
    <tspan x="400" y="183.923" xml:space="preserve"></tspan>
    <tspan x="400" y="198.034" xml:space="preserve">}</tspan>
  </text>
  <text font-size="14.1111" style="fill: #000000;text-anchor:middle;font-family:monospace;font-style:normal;font-weight:normal" x="850" y="154.885">
    <tspan x="850" y="154.885" xml:space="preserve">Heap</tspan>
  </text>
  <text font-size="22.5778" style="fill: #000000;text-anchor:middle;font-family:monospace;font-style:normal;font-weight:normal" x="485" y="-62.1838">
    <tspan x="485" y="-62.1838" xml:space="preserve">Thread A</tspan>
  </text>
  <g>
    <rect style="fill: #97d8c3" x="590" y="10" width="190" height="60"/>
    <rect style="fill: none; fill-opacity:0; stroke-width: 2; stroke: #000000" x="590" y="10" width="190" height="60"/>
  </g>
  <text font-size="11.2889" style="fill: #000000;text-anchor:start;font-family:monospace;font-style:normal;font-weight:normal" x="600" y="30.4786">
    <tspan x="600" y="30.4786" xml:space="preserve">void func1 () {</tspan>
    <tspan x="600" y="44.5897" xml:space="preserve">    cout &lt;&lt; "func1!";</tspan>
    <tspan x="600" y="58.7008" xml:space="preserve">}</tspan>
  </text>
  <g>
    <rect style="fill: #97d8c3" x="790" y="50" width="190" height="160"/>
    <rect style="fill: none; fill-opacity:0; stroke-width: 2; stroke: #000000" x="790" y="50" width="190" height="160"/>
  </g>
  <g>
    <rect style="fill: #97d8c3" x="590" y="80" width="190" height="60"/>
    <rect style="fill: none; fill-opacity:0; stroke-width: 2; stroke: #000000" x="590" y="80" width="190" height="60"/>
  </g>
  <text font-size="11.2889" style="fill: #000000;text-anchor:start;font-family:monospace;font-style:normal;font-weight:normal" x="600" y="100.479">
    <tspan x="600" y="100.479" xml:space="preserve">void func2 () {</tspan>
    <tspan x="600" y="114.59" xml:space="preserve">    cout &lt;&lt; "func2!";</tspan>
    <tspan x="600" y="128.701" xml:space="preserve">}</tspan>
  </text>
  <g>
    <rect style="fill: #97d8c3" x="590" y="150" width="190" height="60"/>
    <rect style="fill: none; fill-opacity:0; stroke-width: 2; stroke: #000000" x="590" y="150" width="190" height="60"/>
  </g>
  <text font-size="11.2889" style="fill: #000000;text-anchor:start;font-family:monospace;font-style:normal;font-weight:normal" x="600" y="170.479">
    <tspan x="600" y="170.479" xml:space="preserve">void func3 () {</tspan>
    <tspan x="600" y="184.59" xml:space="preserve">    cout &lt;&lt; "func3!";</tspan>
    <tspan x="600" y="198.701" xml:space="preserve">}</tspan>
  </text>
  <text font-size="11.2889" style="fill: #000000;text-anchor:start;font-family:monospace;font-style:normal;font-weight:normal" x="800" y="70.4786">
    <tspan x="800" y="70.4786" xml:space="preserve">void threadB (void*) {</tspan>
    <tspan x="800" y="84.5897" xml:space="preserve"></tspan>
    <tspan x="800" y="98.7008" xml:space="preserve">    func2();</tspan>
    <tspan x="800" y="112.812" xml:space="preserve"></tspan>
    <tspan x="800" y="126.923" xml:space="preserve"></tspan>
    <tspan x="800" y="141.034" xml:space="preserve">    ...</tspan>
    <tspan x="800" y="155.145" xml:space="preserve"></tspan>
    <tspan x="800" y="169.256" xml:space="preserve">    func3();</tspan>
    <tspan x="800" y="183.367" xml:space="preserve"></tspan>
    <tspan x="800" y="197.479" xml:space="preserve">}</tspan>
  </text>
  <g>
    <rect style="fill: #cc7676" x="790" y="-90" width="190" height="40"/>
    <rect style="fill: none; fill-opacity:0; stroke-width: 2; stroke: #000000" x="790" y="-90" width="190" height="40"/>
  </g>
  <text font-size="22.5778" style="fill: #000000;text-anchor:middle;font-family:monospace;font-style:normal;font-weight:normal" x="885" y="-62.1838">
    <tspan x="885" y="-62.1838" xml:space="preserve">Thread B</tspan>
  </text>
  <g>
    <line style="fill: none; fill-opacity:0; stroke-width: 2; stroke: #ffa500" x1="490" y1="-50" x2="489.569" y2="19.0201"/>
    <polygon style="fill: #ffa500" points="489.522,26.52 486.584,16.5014 489.569,19.0201 492.584,16.5389 "/>
    <polygon style="fill: none; fill-opacity:0; stroke-width: 2; stroke: #ffa500" points="489.522,26.52 486.584,16.5014 489.569,19.0201 492.584,16.5389 "/>
  </g>
  <g>
    <line style="fill: none; fill-opacity:0; stroke-width: 2; stroke: #ffa500" x1="490" y1="30" x2="589.02" y2="30"/>
    <polygon style="fill: #ffa500" points="596.52,30 586.52,33 589.02,30 586.52,27 "/>
    <polygon style="fill: none; fill-opacity:0; stroke-width: 2; stroke: #ffa500" points="596.52,30 586.52,33 589.02,30 586.52,27 "/>
  </g>
  <g>
    <line style="fill: none; fill-opacity:0; stroke-width: 2; stroke: #ffa500" x1="600" y1="30" x2="600" y2="49.0199"/>
    <polygon style="fill: #ffa500" points="600,56.5199 597,46.5199 600,49.0199 603,46.5199 "/>
    <polygon style="fill: none; fill-opacity:0; stroke-width: 2; stroke: #ffa500" points="600,56.5199 597,46.5199 600,49.0199 603,46.5199 "/>
  </g>
  <g>
    <line style="fill: none; fill-opacity:0; stroke-width: 2; stroke: #ffa500" x1="600" y1="60" x2="500.98" y2="60"/>
    <polygon style="fill: #ffa500" points="493.48,60 503.48,57 500.98,60 503.48,63 "/>
    <polygon style="fill: none; fill-opacity:0; stroke-width: 2; stroke: #ffa500" points="493.48,60 503.48,57 500.98,60 503.48,63 "/>
  </g>
  <g>
    <line style="fill: none; fill-opacity:0; stroke-width: 2; stroke: #ffa500" x1="490" y1="60" x2="490" y2="159.02"/>
    <polygon style="fill: #ffa500" points="490,166.52 487,156.52 490,159.02 493,156.52 "/>
    <polygon style="fill: none; fill-opacity:0; stroke-width: 2; stroke: #ffa500" points="490,166.52 487,156.52 490,159.02 493,156.52 "/>
  </g>
  <g>
    <line style="fill: none; fill-opacity:0; stroke-width: 2; stroke: #ffa500" x1="490" y1="170" x2="589.02" y2="170"/>
    <polygon style="fill: #ffa500" points="596.52,170 586.52,173 589.02,170 586.52,167 "/>
    <polygon style="fill: none; fill-opacity:0; stroke-width: 2; stroke: #ffa500" points="596.52,170 586.52,173 589.02,170 586.52,167 "/>
  </g>
  <g>
    <line style="fill: none; fill-opacity:0; stroke-width: 2; stroke: #ffa500" x1="600" y1="170" x2="600" y2="189.02"/>
    <polygon style="fill: #ffa500" points="600,196.52 597,186.52 600,189.02 603,186.52 "/>
    <polygon style="fill: none; fill-opacity:0; stroke-width: 2; stroke: #ffa500" points="600,196.52 597,186.52 600,189.02 603,186.52 "/>
  </g>
  <g>
    <line style="fill: none; fill-opacity:0; stroke-width: 2; stroke: #ffa500" x1="600" y1="200" x2="500.98" y2="200"/>
    <polygon style="fill: #ffa500" points="493.48,200 503.48,197 500.98,200 503.48,203 "/>
    <polygon style="fill: none; fill-opacity:0; stroke-width: 2; stroke: #ffa500" points="493.48,200 503.48,197 500.98,200 503.48,203 "/>
  </g>
  <g>
    <line style="fill: none; fill-opacity:0; stroke-width: 2; stroke: #ffa500" x1="490" y1="200" x2="490" y2="229.02"/>
    <polygon style="fill: #ffa500" points="490,236.52 487,226.52 490,229.02 493,226.52 "/>
    <polygon style="fill: none; fill-opacity:0; stroke-width: 2; stroke: #ffa500" points="490,236.52 487,226.52 490,229.02 493,226.52 "/>
  </g>
  <g>
    <line style="fill: none; fill-opacity:0; stroke-width: 2; stroke: #cc2f2f" x1="820" y1="-50" x2="820" y2="89.0199"/>
    <polygon style="fill: #cc2f2f" points="820,96.5199 817,86.5199 820,89.0199 823,86.5199 "/>
    <polygon style="fill: none; fill-opacity:0; stroke-width: 2; stroke: #cc2f2f" points="820,96.5199 817,86.5199 820,89.0199 823,86.5199 "/>
  </g>
  <g>
    <line style="fill: none; fill-opacity:0; stroke-width: 2; stroke: #cc2f2f" x1="820" y1="100" x2="760.98" y2="100"/>
    <polygon style="fill: #cc2f2f" points="753.48,100 763.48,97 760.98,100 763.48,103 "/>
    <polygon style="fill: none; fill-opacity:0; stroke-width: 2; stroke: #cc2f2f" points="753.48,100 763.48,97 760.98,100 763.48,103 "/>
  </g>
  <g>
    <line style="fill: none; fill-opacity:0; stroke-width: 2; stroke: #cc2f2f" x1="750" y1="100" x2="750" y2="119.02"/>
    <polygon style="fill: #cc2f2f" points="750,126.52 747,116.52 750,119.02 753,116.52 "/>
    <polygon style="fill: none; fill-opacity:0; stroke-width: 2; stroke: #cc2f2f" points="750,126.52 747,116.52 750,119.02 753,116.52 "/>
  </g>
  <g>
    <line style="fill: none; fill-opacity:0; stroke-width: 2; stroke: #cc2f2f" x1="750" y1="130" x2="809.02" y2="130"/>
    <polygon style="fill: #cc2f2f" points="816.52,130 806.52,133 809.02,130 806.52,127 "/>
    <polygon style="fill: none; fill-opacity:0; stroke-width: 2; stroke: #cc2f2f" points="816.52,130 806.52,133 809.02,130 806.52,127 "/>
  </g>
  <g>
    <line style="fill: none; fill-opacity:0; stroke-width: 2; stroke: #cc2f2f" x1="820" y1="130" x2="820" y2="159.02"/>
    <polygon style="fill: #cc2f2f" points="820,166.52 817,156.52 820,159.02 823,156.52 "/>
    <polygon style="fill: none; fill-opacity:0; stroke-width: 2; stroke: #cc2f2f" points="820,166.52 817,156.52 820,159.02 823,156.52 "/>
  </g>
  <g>
    <line style="fill: none; fill-opacity:0; stroke-width: 2; stroke: #cc2f2f" x1="820" y1="170" x2="760.98" y2="170"/>
    <polygon style="fill: #cc2f2f" points="753.48,170 763.48,167 760.98,170 763.48,173 "/>
    <polygon style="fill: none; fill-opacity:0; stroke-width: 2; stroke: #cc2f2f" points="753.48,170 763.48,167 760.98,170 763.48,173 "/>
  </g>
  <g>
    <line style="fill: none; fill-opacity:0; stroke-width: 2; stroke: #cc2f2f" x1="750" y1="170" x2="750" y2="189.02"/>
    <polygon style="fill: #cc2f2f" points="750,196.52 747,186.52 750,189.02 753,186.52 "/>
    <polygon style="fill: none; fill-opacity:0; stroke-width: 2; stroke: #cc2f2f" points="750,196.52 747,186.52 750,189.02 753,186.52 "/>
  </g>
  <g>
    <line style="fill: none; fill-opacity:0; stroke-width: 2; stroke: #cc2f2f" x1="750" y1="200" x2="809.02" y2="200"/>
    <polygon style="fill: #cc2f2f" points="816.52,200 806.52,203 809.02,200 806.52,197 "/>
    <polygon style="fill: none; fill-opacity:0; stroke-width: 2; stroke: #cc2f2f" points="816.52,200 806.52,203 809.02,200 806.52,197 "/>
  </g>
  <g>
    <line style="fill: none; fill-opacity:0; stroke-width: 2; stroke: #cc2f2f" x1="820" y1="200" x2="820" y2="229.02"/>
    <polygon style="fill: #cc2f2f" points="820,236.52 817,226.52 820,229.02 823,226.52 "/>
    <polygon style="fill: none; fill-opacity:0; stroke-width: 2; stroke: #cc2f2f" points="820,236.52 817,226.52 820,229.02 823,226.52 "/>
  </g>
</svg>
